<svg width="485" height="174" viewBox="0 0 485 174" fill="none" xmlns="http://www.w3.org/2000/svg">
<path d="M177.4 115V59H211.24V65.08H184.12V83.88H209.08V89.96H184.12V115H177.4ZM220.843 115V59H227.163V115H220.843ZM255.413 115.72C252.586 115.72 249.973 115.107 247.573 113.88C245.226 112.653 243.359 110.84 241.973 108.44C240.639 105.987 239.973 103.027 239.973 99.56V75.88H246.293V99.08C246.293 102.973 247.253 105.8 249.173 107.56C251.146 109.32 253.786 110.2 257.093 110.2C260.826 110.2 263.893 108.973 266.293 106.52C268.693 104.067 269.893 100.413 269.893 95.56V75.88H276.213V115H270.053V108.36H268.933C268.079 110.227 266.613 111.933 264.533 113.48C262.453 114.973 259.413 115.72 255.413 115.72ZM286.237 115L301.917 95.16L286.717 75.88H294.317L305.997 91H307.117L318.717 75.88H326.397L311.117 95.16L326.797 115H319.117L307.117 99.4H305.997L293.997 115H286.237ZM347.921 116.12C345.201 116.12 342.721 115.64 340.481 114.68C338.241 113.72 336.481 112.333 335.201 110.52C333.921 108.707 333.281 106.493 333.281 103.88C333.281 101.213 333.921 99.0267 335.201 97.32C336.481 95.56 338.241 94.2533 340.481 93.4C342.721 92.4933 345.228 92.04 348.001 92.04H361.201V89.16C361.201 86.3867 360.375 84.2 358.721 82.6C357.121 81 354.721 80.2 351.521 80.2C348.375 80.2 345.921 80.9733 344.161 82.52C342.401 84.0133 341.201 86.04 340.561 88.6L334.641 86.68C335.281 84.4933 336.295 82.52 337.681 80.76C339.068 78.9467 340.908 77.5067 343.201 76.44C345.548 75.32 348.348 74.76 351.601 74.76C356.615 74.76 360.508 76.0667 363.281 78.68C366.055 81.24 367.441 84.8667 367.441 89.56V107.24C367.441 108.84 368.188 109.64 369.681 109.64H373.281V115H367.761C366.001 115 364.588 114.52 363.521 113.56C362.455 112.547 361.921 111.213 361.921 109.56V109.16H360.961C360.375 110.173 359.575 111.24 358.561 112.36C357.601 113.427 356.268 114.307 354.561 115C352.855 115.747 350.641 116.12 347.921 116.12ZM348.641 110.68C352.375 110.68 355.388 109.587 357.681 107.4C360.028 105.16 361.201 102.04 361.201 98.04V97.16H348.241C345.735 97.16 343.655 97.72 342.001 98.84C340.401 99.9067 339.601 101.533 339.601 103.72C339.601 105.907 340.428 107.613 342.081 108.84C343.788 110.067 345.975 110.68 348.641 110.68ZM381.937 115V75.88H388.097V80.68H389.217C389.91 78.9733 390.977 77.72 392.417 76.92C393.857 76.12 395.75 75.72 398.097 75.72H402.737V81.48H397.697C394.87 81.48 392.577 82.28 390.817 83.88C389.11 85.4267 388.257 87.8533 388.257 91.16V115H381.937ZM416.813 131V125.4H439.213C440.76 125.4 441.533 124.6 441.533 123V108.76H440.413C439.88 109.88 439.053 111 437.933 112.12C436.866 113.187 435.453 114.067 433.693 114.76C431.933 115.4 429.72 115.72 427.053 115.72C424.226 115.72 421.613 115.107 419.213 113.88C416.866 112.653 415 110.84 413.613 108.44C412.28 106.04 411.613 103.107 411.613 99.64V75.88H417.933V99.16C417.933 103 418.893 105.8 420.813 107.56C422.786 109.32 425.426 110.2 428.733 110.2C432.466 110.2 435.533 108.973 437.933 106.52C440.333 104.067 441.533 100.413 441.533 95.56V75.88H447.853V124.12C447.853 126.253 447.24 127.933 446.013 129.16C444.84 130.387 443.106 131 440.813 131H416.813Z" fill="white"/>
<circle cx="84.9631" cy="52" r="4" transform="rotate(90 84.9631 52)" fill="white"/>
<rect width="8" height="17.117" transform="matrix(0 1 -1 0 84.9631 48)" fill="white"/>
<circle cx="67.8462" cy="52" r="4" transform="rotate(90 67.8462 52)" fill="white"/>
<circle cx="105.715" cy="52" r="4" transform="rotate(90 105.715 52)" fill="white"/>
<rect width="8" height="37.8692" transform="matrix(0 1 -1 0 105.715 48)" fill="white"/>
<circle cx="67.8462" cy="52" r="4" transform="rotate(90 67.8462 52)" fill="white"/>
<circle cx="69.6677" cy="69.3205" r="4" transform="rotate(90 69.6677 69.3205)" fill="white"/>
<rect width="8" height="24" transform="matrix(0 1 -1 0 69.6677 65.3205)" fill="white"/>
<circle cx="45.6677" cy="69.3205" r="4" transform="rotate(90 45.6677 69.3205)" fill="white"/>
<circle cx="137.603" cy="69.3205" r="4" transform="rotate(90 137.603 69.3205)" fill="white"/>
<rect width="8" height="52" transform="matrix(0 1 -1 0 137.603 65.3205)" fill="white"/>
<circle cx="85.6025" cy="69.3205" r="4" transform="rotate(90 85.6025 69.3205)" fill="white"/>
<circle cx="127.603" cy="86.641" r="4" transform="rotate(90 127.603 86.641)" fill="white"/>
<rect width="8" height="6.99913" transform="matrix(0 1 -1 0 127.603 82.641)" fill="white"/>
<circle cx="120.603" cy="86.641" r="4" transform="rotate(90 120.603 86.641)" fill="white"/>
<circle cx="100.726" cy="86.641" r="4" transform="rotate(90 100.726 86.641)" fill="white"/>
<rect width="8" height="65.1063" transform="matrix(0 1 -1 0 100.726 82.641)" fill="white"/>
<circle cx="35.6194" cy="86.641" r="4" transform="rotate(90 35.6194 86.641)" fill="white"/>
<circle cx="36.6036" cy="103.962" r="4" transform="rotate(90 36.6036 103.962)" fill="white"/>
<rect width="8" height="10.083" transform="matrix(0 1 -1 0 36.6036 99.9615)" fill="white"/>
<circle cx="26.5206" cy="103.962" r="4" transform="rotate(90 26.5206 103.962)" fill="white"/>
<circle cx="117.603" cy="103.962" r="4" transform="rotate(90 117.603 103.962)" fill="white"/>
<rect width="8" height="66.79" transform="matrix(0 1 -1 0 117.603 99.9615)" fill="white"/>
<circle cx="50.8125" cy="103.962" r="4" transform="rotate(90 50.8125 103.962)" fill="white"/>
<circle cx="88.7489" cy="121.282" r="4" transform="rotate(90 88.7489 121.282)" fill="white"/>
<rect width="8" height="32.1602" transform="matrix(0 1 -1 0 88.7489 117.282)" fill="white"/>
<circle cx="56.5887" cy="121.282" r="4" transform="rotate(90 56.5887 121.282)" fill="white"/>
<circle cx="88.7489" cy="121.282" r="4" transform="rotate(90 88.7489 121.282)" fill="white"/>
<rect width="8" height="7.94735" transform="matrix(0 1 -1 0 88.7489 117.282)" fill="white"/>
<circle cx="80.8015" cy="121.282" r="4" transform="rotate(90 80.8015 121.282)" fill="white"/>
<circle cx="127.603" cy="86.641" r="4" transform="rotate(90 127.603 86.641)" fill="white"/>
<rect width="8" height="11" transform="matrix(0 1 -1 0 127.603 82.641)" fill="white"/>
<circle cx="116.603" cy="86.641" r="4" transform="rotate(90 116.603 86.641)" fill="white"/>
</svg>
