<svg width="490" height="174" viewBox="0 0 490 174" fill="none" xmlns="http://www.w3.org/2000/svg">
<path d="M175.799 114.792V58.7916H209.639V64.8717H182.519V83.6717H207.479V89.7517H182.519V114.792H175.799ZM219.242 114.792V58.7916H225.562V114.792H219.242ZM253.812 115.512C250.985 115.512 248.372 114.898 245.972 113.672C243.625 112.445 241.758 110.632 240.372 108.232C239.038 105.778 238.372 102.818 238.372 99.3517V75.6717H244.692V98.8717C244.692 102.765 245.652 105.592 247.572 107.352C249.545 109.112 252.185 109.992 255.492 109.992C259.225 109.992 262.292 108.765 264.692 106.312C267.092 103.858 268.292 100.205 268.292 95.3517V75.6717H274.612V114.792H268.452V108.152H267.332C266.478 110.018 265.012 111.725 262.932 113.272C260.852 114.765 257.812 115.512 253.812 115.512ZM284.636 114.792L300.316 94.9517L285.116 75.6717H292.716L304.396 90.7917H305.516L317.116 75.6717H324.796L309.516 94.9517L325.196 114.792H317.516L305.516 99.1917H304.396L292.396 114.792H284.636ZM346.321 115.912C343.601 115.912 341.121 115.432 338.881 114.472C336.641 113.512 334.881 112.125 333.601 110.312C332.321 108.498 331.681 106.285 331.681 103.672C331.681 101.005 332.321 98.8183 333.601 97.1117C334.881 95.3517 336.641 94.045 338.881 93.1917C341.121 92.285 343.627 91.8317 346.401 91.8317H359.601V88.9517C359.601 86.1783 358.774 83.9917 357.121 82.3917C355.521 80.7917 353.121 79.9917 349.921 79.9917C346.774 79.9917 344.321 80.765 342.561 82.3117C340.801 83.805 339.601 85.8317 338.961 88.3917L333.041 86.4717C333.681 84.285 334.694 82.3117 336.081 80.5517C337.467 78.7383 339.307 77.2983 341.601 76.2317C343.947 75.1117 346.747 74.5517 350.001 74.5517C355.014 74.5517 358.907 75.8583 361.681 78.4717C364.454 81.0317 365.841 84.6583 365.841 89.3517V107.032C365.841 108.632 366.587 109.432 368.081 109.432H371.681V114.792H366.161C364.401 114.792 362.987 114.312 361.921 113.352C360.854 112.338 360.321 111.005 360.321 109.352V108.952H359.361C358.774 109.965 357.974 111.032 356.961 112.152C356.001 113.218 354.667 114.098 352.961 114.792C351.254 115.538 349.041 115.912 346.321 115.912ZM347.041 110.472C350.774 110.472 353.787 109.378 356.081 107.192C358.427 104.952 359.601 101.832 359.601 97.8317V96.9517H346.641C344.134 96.9517 342.054 97.5117 340.401 98.6317C338.801 99.6983 338.001 101.325 338.001 103.512C338.001 105.698 338.827 107.405 340.481 108.632C342.187 109.858 344.374 110.472 347.041 110.472ZM380.336 114.792V75.6717H386.496V80.4717H387.616C388.31 78.765 389.376 77.5117 390.816 76.7117C392.256 75.9117 394.15 75.5117 396.496 75.5117H401.136V81.2717H396.096C393.27 81.2717 390.976 82.0717 389.216 83.6717C387.51 85.2183 386.656 87.645 386.656 90.9517V114.792H380.336ZM415.212 130.792V125.192H437.612C439.159 125.192 439.932 124.392 439.932 122.792V108.552H438.812C438.279 109.672 437.452 110.792 436.332 111.912C435.266 112.978 433.852 113.858 432.092 114.552C430.332 115.192 428.119 115.512 425.452 115.512C422.626 115.512 420.012 114.898 417.612 113.672C415.266 112.445 413.399 110.632 412.012 108.232C410.679 105.832 410.012 102.898 410.012 99.4317V75.6717H416.332V98.9517C416.332 102.792 417.292 105.592 419.212 107.352C421.186 109.112 423.826 109.992 427.132 109.992C430.866 109.992 433.932 108.765 436.332 106.312C438.732 103.858 439.932 100.205 439.932 95.3517V75.6717H446.252V123.912C446.252 126.045 445.639 127.725 444.412 128.952C443.239 130.178 441.506 130.792 439.212 130.792H415.212Z" fill="black"/>
<circle cx="84.9633" cy="52" r="4" transform="rotate(90 84.9633 52)" fill="black"/>
<rect width="8" height="17.117" transform="matrix(0 1 -1 0 84.9633 48)" fill="black"/>
<circle cx="67.8463" cy="52" r="4" transform="rotate(90 67.8463 52)" fill="black"/>
<circle cx="105.715" cy="52" r="4" transform="rotate(90 105.715 52)" fill="black"/>
<rect width="8" height="37.8692" transform="matrix(0 1 -1 0 105.715 48)" fill="black"/>
<circle cx="67.8463" cy="52" r="4" transform="rotate(90 67.8463 52)" fill="black"/>
<circle cx="69.6678" cy="69.3205" r="4" transform="rotate(90 69.6678 69.3205)" fill="black"/>
<rect width="8" height="24" transform="matrix(0 1 -1 0 69.6678 65.3205)" fill="black"/>
<circle cx="45.6678" cy="69.3205" r="4" transform="rotate(90 45.6678 69.3205)" fill="black"/>
<circle cx="137.603" cy="69.3205" r="4" transform="rotate(90 137.603 69.3205)" fill="black"/>
<rect width="8" height="52" transform="matrix(0 1 -1 0 137.603 65.3205)" fill="black"/>
<circle cx="85.6027" cy="69.3205" r="4" transform="rotate(90 85.6027 69.3205)" fill="black"/>
<circle cx="127.603" cy="86.641" r="4" transform="rotate(90 127.603 86.641)" fill="black"/>
<rect width="8" height="6.99913" transform="matrix(0 1 -1 0 127.603 82.641)" fill="black"/>
<circle cx="120.604" cy="86.641" r="4" transform="rotate(90 120.604 86.641)" fill="black"/>
<circle cx="100.726" cy="86.641" r="4" transform="rotate(90 100.726 86.641)" fill="black"/>
<rect width="8" height="65.1063" transform="matrix(0 1 -1 0 100.726 82.641)" fill="black"/>
<circle cx="35.6195" cy="86.641" r="4" transform="rotate(90 35.6195 86.641)" fill="black"/>
<circle cx="36.6036" cy="103.962" r="4" transform="rotate(90 36.6036 103.962)" fill="black"/>
<rect width="8" height="10.083" transform="matrix(0 1 -1 0 36.6036 99.9615)" fill="black"/>
<circle cx="26.5206" cy="103.962" r="4" transform="rotate(90 26.5206 103.962)" fill="black"/>
<circle cx="117.603" cy="103.962" r="4" transform="rotate(90 117.603 103.962)" fill="black"/>
<rect width="8" height="66.79" transform="matrix(0 1 -1 0 117.603 99.9615)" fill="black"/>
<circle cx="50.8126" cy="103.962" r="4" transform="rotate(90 50.8126 103.962)" fill="black"/>
<circle cx="88.7489" cy="121.282" r="4" transform="rotate(90 88.7489 121.282)" fill="black"/>
<rect width="8" height="32.1602" transform="matrix(0 1 -1 0 88.7489 117.282)" fill="black"/>
<circle cx="56.5887" cy="121.282" r="4" transform="rotate(90 56.5887 121.282)" fill="black"/>
<circle cx="88.7489" cy="121.282" r="4" transform="rotate(90 88.7489 121.282)" fill="black"/>
<rect width="8" height="7.94735" transform="matrix(0 1 -1 0 88.7489 117.282)" fill="black"/>
<circle cx="80.8016" cy="121.282" r="4" transform="rotate(90 80.8016 121.282)" fill="black"/>
<circle cx="127.603" cy="86.641" r="4" transform="rotate(90 127.603 86.641)" fill="black"/>
<rect width="8" height="11" transform="matrix(0 1 -1 0 127.603 82.641)" fill="black"/>
<circle cx="116.603" cy="86.641" r="4" transform="rotate(90 116.603 86.641)" fill="black"/>
</svg>
