<svg width="164" height="174" viewBox="0 0 164 174" fill="none" xmlns="http://www.w3.org/2000/svg">
<rect width="150" height="150" transform="translate(6.72681 12)" fill="white"/>
<circle cx="84.9631" cy="52" r="4" transform="rotate(90 84.9631 52)" fill="black"/>
<rect width="8" height="17.117" transform="matrix(0 1 -1 0 84.9631 48)" fill="black"/>
<circle cx="67.8462" cy="52" r="4" transform="rotate(90 67.8462 52)" fill="black"/>
<circle cx="105.715" cy="52" r="4" transform="rotate(90 105.715 52)" fill="black"/>
<rect width="8" height="37.8692" transform="matrix(0 1 -1 0 105.715 48)" fill="black"/>
<circle cx="67.8462" cy="52" r="4" transform="rotate(90 67.8462 52)" fill="black"/>
<circle cx="69.6677" cy="69.3205" r="4" transform="rotate(90 69.6677 69.3205)" fill="black"/>
<rect width="8" height="24" transform="matrix(0 1 -1 0 69.6677 65.3205)" fill="black"/>
<circle cx="45.6677" cy="69.3205" r="4" transform="rotate(90 45.6677 69.3205)" fill="black"/>
<circle cx="137.603" cy="69.3205" r="4" transform="rotate(90 137.603 69.3205)" fill="black"/>
<rect width="8" height="52" transform="matrix(0 1 -1 0 137.603 65.3205)" fill="black"/>
<circle cx="85.6025" cy="69.3205" r="4" transform="rotate(90 85.6025 69.3205)" fill="black"/>
<circle cx="127.603" cy="86.641" r="4" transform="rotate(90 127.603 86.641)" fill="black"/>
<rect width="8" height="6.99913" transform="matrix(0 1 -1 0 127.603 82.641)" fill="black"/>
<circle cx="120.604" cy="86.641" r="4" transform="rotate(90 120.604 86.641)" fill="black"/>
<circle cx="100.726" cy="86.641" r="4" transform="rotate(90 100.726 86.641)" fill="black"/>
<rect width="8" height="65.1063" transform="matrix(0 1 -1 0 100.726 82.641)" fill="black"/>
<circle cx="35.6194" cy="86.641" r="4" transform="rotate(90 35.6194 86.641)" fill="black"/>
<circle cx="36.6035" cy="103.962" r="4" transform="rotate(90 36.6035 103.962)" fill="black"/>
<rect width="8" height="10.083" transform="matrix(0 1 -1 0 36.6035 99.9615)" fill="black"/>
<circle cx="26.5205" cy="103.962" r="4" transform="rotate(90 26.5205 103.962)" fill="black"/>
<circle cx="117.603" cy="103.962" r="4" transform="rotate(90 117.603 103.962)" fill="black"/>
<rect width="8" height="66.79" transform="matrix(0 1 -1 0 117.603 99.9615)" fill="black"/>
<circle cx="50.8125" cy="103.962" r="4" transform="rotate(90 50.8125 103.962)" fill="black"/>
<circle cx="88.7488" cy="121.282" r="4" transform="rotate(90 88.7488 121.282)" fill="black"/>
<rect width="8" height="32.1602" transform="matrix(0 1 -1 0 88.7488 117.282)" fill="black"/>
<circle cx="56.5886" cy="121.282" r="4" transform="rotate(90 56.5886 121.282)" fill="black"/>
<circle cx="88.7488" cy="121.282" r="4" transform="rotate(90 88.7488 121.282)" fill="black"/>
<rect width="8" height="7.94735" transform="matrix(0 1 -1 0 88.7488 117.282)" fill="black"/>
<circle cx="80.8015" cy="121.282" r="4" transform="rotate(90 80.8015 121.282)" fill="black"/>
<circle cx="127.603" cy="86.641" r="4" transform="rotate(90 127.603 86.641)" fill="black"/>
<rect width="8" height="11" transform="matrix(0 1 -1 0 127.603 82.641)" fill="black"/>
<circle cx="116.603" cy="86.641" r="4" transform="rotate(90 116.603 86.641)" fill="black"/>
</svg>
